<svg width="196" height="42" viewBox="0 0 196 42" fill="none" xmlns="http://www.w3.org/2000/svg">
<path d="M67.88 31.3716H72.68V24.0116H77.32C82.088 24.0116 85.32 20.8436 85.32 16.4916C85.32 12.1396 82.088 8.97158 77.32 8.97158H67.88V31.3716ZM72.68 19.5316V13.4516H77.16C79.08 13.4516 80.36 14.6996 80.36 16.4916C80.36 18.2836 79.08 19.5316 77.16 19.5316H72.68ZM96.6613 31.3716H100.981V21.6116C100.981 18.1236 98.2613 15.3716 94.2613 15.3716C92.1813 15.3716 90.6133 16.1396 89.4933 16.9076C88.8533 17.3556 88.3093 17.8676 87.8613 18.4116L90.4213 20.9716C90.6773 20.6516 90.9973 20.3636 91.3493 20.1076C91.9573 19.6276 92.8213 19.2116 93.9413 19.2116C95.5733 19.2116 96.5013 20.1716 96.6613 21.2916L91.7013 22.1876C88.7893 22.6996 87.0613 24.6516 87.0613 27.2116C87.0613 29.7716 88.9813 31.6916 91.8613 31.6916C93.3653 31.6916 94.5493 31.1796 95.3173 30.5716C95.7653 30.2516 96.1493 29.8676 96.5013 29.4516H96.6613V31.3716ZM96.6613 24.6516C96.6613 26.7316 95.2213 28.1716 93.3013 28.1716C92.0213 28.1716 91.3813 27.5636 91.3813 26.5716C91.3813 25.7716 92.0213 25.1956 93.1413 24.9716L96.6613 24.3316V24.6516ZM103.87 37.6116C104.126 37.7076 104.414 37.7716 104.702 37.8676C105.214 37.9956 105.95 38.0916 106.75 38.0916C109.662 38.0916 111.518 36.2036 112.83 32.6516L119.23 15.6916H114.59L111.07 26.0916H110.91L107.23 15.6916H102.59L108.67 31.2116L108.35 32.0116C107.87 33.1316 107.07 33.9316 105.63 33.9316C105.15 33.9316 104.734 33.8676 104.382 33.7716C104.19 33.7396 104.03 33.6756 103.87 33.6116V37.6116ZM119.543 28.8116C120.023 29.3556 120.599 29.8356 121.271 30.2516C122.423 30.9876 124.087 31.6916 126.263 31.6916C130.583 31.6916 132.823 29.4196 132.823 26.7316C132.823 21.6116 124.823 21.9316 124.823 20.1716C124.823 19.6916 125.303 19.2116 126.423 19.2116C127.543 19.2116 128.407 19.4996 129.015 19.8516C129.367 20.0436 129.687 20.2676 129.943 20.4916L132.503 17.7716C132.087 17.3556 131.575 16.9396 130.967 16.5876C129.943 15.9796 128.439 15.3716 126.423 15.3716C122.423 15.3716 120.183 17.6116 120.183 20.1716C120.183 25.2916 128.183 24.9716 128.183 26.7316C128.183 27.3716 127.703 27.8516 126.263 27.8516C124.983 27.8516 123.959 27.4676 123.223 26.9876C122.807 26.7316 122.423 26.4436 122.103 26.0916L119.543 28.8116ZM138.969 31.3716H142.905L145.881 22.2516H146.009L148.985 31.3716H152.921L158.425 15.6916H153.785L150.905 24.9716H150.745L147.705 15.6916H144.185L141.145 24.9716H140.985L138.105 15.6916H133.465L138.969 31.3716ZM169.13 31.3716H173.45V21.6116C173.45 18.1236 170.73 15.3716 166.73 15.3716C164.65 15.3716 163.082 16.1396 161.962 16.9076C161.322 17.3556 160.778 17.8676 160.33 18.4116L162.89 20.9716C163.146 20.6516 163.466 20.3636 163.818 20.1076C164.426 19.6276 165.29 19.2116 166.41 19.2116C168.042 19.2116 168.97 20.1716 169.13 21.2916L164.17 22.1876C161.258 22.6996 159.53 24.6516 159.53 27.2116C159.53 29.7716 161.45 31.6916 164.33 31.6916C165.834 31.6916 167.018 31.1796 167.786 30.5716C168.234 30.2516 168.618 29.8676 168.97 29.4516H169.13V31.3716ZM169.13 24.6516C169.13 26.7316 167.69 28.1716 165.77 28.1716C164.49 28.1716 163.85 27.5636 163.85 26.5716C163.85 25.7716 164.49 25.1956 165.61 24.9716L169.13 24.3316V24.6516ZM177.611 38.0916H181.931V29.1316H182.091C182.411 29.6116 182.827 30.0276 183.307 30.4116C184.171 31.0516 185.355 31.6916 187.051 31.6916C190.763 31.6916 194.091 28.3316 194.091 23.5316C194.091 18.7636 190.763 15.3716 187.051 15.3716C185.355 15.3716 184.171 16.0116 183.307 16.6516C182.827 17.0356 182.411 17.4516 182.091 17.9316H181.931V15.6916H177.611V38.0916ZM185.771 27.6916C183.531 27.6916 181.771 25.9316 181.771 23.5316C181.771 21.1316 183.531 19.3716 185.771 19.3716C188.011 19.3716 189.771 21.1316 189.771 23.5316C189.771 25.9316 188.011 27.6916 185.771 27.6916Z" fill="#22133E"/>
<path d="M33.5846 9.68662C41.6885 12.6361 42.181 23.9111 34.365 27.5559L14.5984 36.7736C6.78252 40.4184 -1.53837 32.7939 1.41107 24.69L6.68552 10.1978C8.51392 5.1741 14.0687 2.58377 19.0924 4.41217L33.5846 9.68662Z" fill="url(#paint0_linear_401_240)"/>
<path d="M55.8412 16.8651C58.7906 8.76121 50.4697 1.13674 42.6538 4.7815L22.8872 13.9992C15.0713 17.644 15.5638 28.919 23.6677 31.8685L38.1598 37.1429C43.1836 38.9713 48.7383 36.381 50.5667 31.3573L55.8412 16.8651Z" fill="url(#paint1_linear_401_240)"/>
<path d="M33.5846 9.68662C41.6885 12.6361 42.181 23.9111 34.365 27.5559L14.5984 36.7736C6.78252 40.4184 -1.53837 32.7939 1.41107 24.69L6.68552 10.1978C8.51392 5.1741 14.0687 2.58377 19.0924 4.41217L33.5846 9.68662Z" fill="url(#paint2_linear_401_240)"/>
<path d="M55.8412 16.8651C58.7906 8.76121 50.4697 1.13674 42.6538 4.7815L22.8872 13.9992C15.0713 17.644 15.5638 28.919 23.6677 31.8685L38.1598 37.1429C43.1836 38.9713 48.7383 36.381 50.5667 31.3573L55.8412 16.8651Z" fill="url(#paint3_linear_401_240)"/>
<path d="M6.68552 10.1978L1.41107 24.69C-1.53837 32.7939 6.78252 40.4184 14.5984 36.7736L34.365 27.5559C42.181 23.9111 41.6885 12.6361 33.5846 9.68662L19.0924 4.41217C14.0687 2.58377 8.51392 5.1741 6.68552 10.1978ZM38.1598 37.1429L23.6677 31.8685C15.5638 28.919 15.0713 17.644 22.8872 13.9992L42.6538 4.7815C50.4697 1.13674 58.7906 8.76121 55.8412 16.8651L50.5667 31.3573C48.7383 36.381 43.1836 38.9713 38.1598 37.1429Z" stroke="#FEFEFE" stroke-width="6"/>
<defs>
<linearGradient id="paint0_linear_401_240" x1="5.57253" y1="-16.8455" x2="48.808" y2="71.4731" gradientUnits="userSpaceOnUse">
<stop stop-color="#B060FF"/>
<stop offset="1" stop-color="#7E21F3"/>
</linearGradient>
<linearGradient id="paint1_linear_401_240" x1="5.57253" y1="-16.8455" x2="48.808" y2="71.4731" gradientUnits="userSpaceOnUse">
<stop stop-color="#B060FF"/>
<stop offset="1" stop-color="#7E21F3"/>
</linearGradient>
<linearGradient id="paint2_linear_401_240" x1="5.57253" y1="-16.8455" x2="48.808" y2="71.4731" gradientUnits="userSpaceOnUse">
<stop stop-color="#B060FF"/>
<stop offset="1" stop-color="#7E21F3"/>
</linearGradient>
<linearGradient id="paint3_linear_401_240" x1="5.57253" y1="-16.8455" x2="48.808" y2="71.4731" gradientUnits="userSpaceOnUse">
<stop stop-color="#B060FF"/>
<stop offset="1" stop-color="#7E21F3"/>
</linearGradient>
</defs>
</svg>
